<svg width="800" height="800" viewBox="0 0 800 800" fill="none" xmlns="http://www.w3.org/2000/svg">
<path d="M0 0H800V800H0V0Z" fill="white"/>
<path d="M408.397 708.551C336.168 708.551 277.483 692.3 232.34 659.797C187.198 627.295 159.751 581.61 150 522.744L283.261 502.159C289.762 531.412 304.749 554.344 328.223 570.957C352.059 587.208 381.853 595.334 417.606 595.334C448.664 595.334 472.86 589.194 490.195 576.915C507.53 564.276 516.197 547.121 516.197 525.453C516.197 511.368 512.766 500.534 505.905 492.95C499.404 485.366 486.222 477.963 466.36 470.74C446.497 463.156 413.453 453.225 367.226 440.946C317.75 427.945 278.566 414.041 249.675 399.234C221.145 384.066 200.56 366.37 187.92 346.146C175.28 325.561 168.96 300.462 168.96 270.848C168.96 234.734 178.35 203.134 197.129 176.049C216.269 148.963 243.174 128.017 277.844 113.21C312.875 98.4034 353.323 91 399.187 91C444.33 91 484.597 98.0422 519.989 112.127C555.381 126.211 583.911 146.435 605.58 172.798C627.609 198.801 640.972 229.137 645.666 263.806L512.405 287.641C508.794 262.723 497.237 243.04 477.736 228.595C458.595 214.149 433.135 206.023 401.354 204.218C370.657 202.773 345.919 207.649 327.14 218.844C308.36 229.678 298.971 244.846 298.971 264.348C298.971 276.265 302.763 286.016 310.347 293.6C318.292 301.184 333.279 308.949 355.309 316.894C377.338 324.478 411.827 334.229 458.776 346.146C506.085 358.425 543.463 372.148 570.91 387.316C598.718 402.484 618.761 420.722 631.04 442.029C643.68 462.975 650 488.797 650 519.494C650 558.497 640.249 592.264 620.748 620.794C601.607 648.963 573.799 670.632 537.324 685.8C501.21 700.967 458.234 708.551 408.397 708.551Z" fill="black"/>
</svg>
