<svg width="261" height="37" viewBox="0 0 261 37" fill="none" xmlns="http://www.w3.org/2000/svg">
  <path
    d="M12.804 30.602c-3.579 0-6.487-.806-8.724-2.416C1.843 26.576.483 24.31 0 21.394l6.604-1.02c.322 1.45 1.064 2.586 2.228 3.41 1.18.805 2.657 1.207 4.429 1.207 1.539 0 2.738-.304 3.597-.912.859-.627 1.288-1.477 1.288-2.55 0-.698-.17-1.235-.51-1.611-.322-.376-.975-.743-1.96-1.1-.984-.377-2.621-.869-4.912-1.477-2.451-.644-4.393-1.333-5.825-2.067-1.414-.752-2.434-1.628-3.06-2.63-.626-1.02-.94-2.264-.94-3.732 0-1.79.466-3.355 1.396-4.698.949-1.342 2.282-2.38 4-3.113C8.071.367 10.075 0 12.348 0c2.237 0 4.232.349 5.986 1.047 1.754.698 3.168 1.7 4.241 3.006 1.092 1.289 1.754 2.792 1.987 4.51l-6.604 1.181c-.179-1.235-.751-2.21-1.718-2.926-.948-.716-2.21-1.118-3.785-1.208-1.52-.071-2.747.17-3.677.725-.93.537-1.396 1.289-1.396 2.255 0 .59.188 1.074.564 1.45.393.375 1.136.76 2.228 1.154 1.091.376 2.8.859 5.127 1.45 2.344.608 4.196 1.288 5.557 2.04 1.377.751 2.37 1.655 2.98 2.71.625 1.039.939 2.318.939 3.84 0 1.932-.484 3.605-1.45 5.019-.948 1.396-2.326 2.47-4.134 3.221-1.79.752-3.919 1.128-6.389 1.128ZM43.273 0c2.684 0 5.046.662 7.086 1.986 2.04 1.307 3.615 3.123 4.725 5.45 1.11 2.308 1.664 4.93 1.664 7.865 0 2.899-.546 5.512-1.637 7.838-1.092 2.309-2.649 4.134-4.671 5.476-2.004 1.325-4.313 1.987-6.926 1.987-2.917 0-5.404-.76-7.462-2.282v8.545h-6.523V.805h5.717V2.9C37.376.966 40.051 0 43.273 0Zm-.752 24.803c1.629 0 2.989-.411 4.08-1.234 1.11-.823 1.933-1.951 2.47-3.383.555-1.431.832-3.06.832-4.885 0-1.808-.277-3.427-.832-4.859-.555-1.432-1.405-2.559-2.55-3.382-1.128-.841-2.532-1.262-4.215-1.262-2.38 0-4.151.85-5.315 2.55-1.163 1.682-1.745 4-1.745 6.953 0 2.953.591 5.28 1.772 6.98 1.181 1.681 3.015 2.523 5.503 2.523ZM84.435 5.396c.465.93.76 1.897.886 2.899.143.984.215 2.219.215 3.704v17.797h-5.664v-3.892c-1.235 1.629-2.667 2.819-4.295 3.57-1.629.752-3.588 1.128-5.879 1.128-2.04 0-3.794-.385-5.261-1.155-1.45-.787-2.56-1.843-3.329-3.167-.752-1.324-1.127-2.8-1.127-4.43 0-2.129.528-3.91 1.584-5.341 1.073-1.432 2.746-2.541 5.02-3.329 1.27-.411 2.728-.76 4.375-1.047 1.664-.304 4.035-.689 7.113-1.154l1.128-.161c-.126-1.682-.662-2.917-1.61-3.704-.931-.788-2.372-1.182-4.323-1.182-1.431 0-2.738.331-3.919.994-1.163.662-1.968 1.682-2.416 3.06l-5.905-1.852c.733-2.542 2.13-4.528 4.187-5.96C67.273.724 69.957 0 73.268 0c2.685 0 4.984.438 6.899 1.315 1.933.877 3.355 2.237 4.268 4.08Zm-5.96 15.247c.395-.949.61-2.452.645-4.51-2.81.447-4.832.787-6.067 1.02-1.216.215-2.29.483-3.22.805-1.164.43-2.04.949-2.631 1.557-.591.609-.886 1.36-.886 2.255 0 1.092.402 1.978 1.208 2.658.823.68 1.977 1.02 3.463 1.02 1.378 0 2.586-.242 3.623-.725 1.056-.501 1.906-1.119 2.55-1.852.645-.734 1.083-1.477 1.316-2.228ZM104.04 30.602c-2.917 0-5.449-.654-7.597-1.96-2.13-1.324-3.758-3.14-4.885-5.45-1.128-2.326-1.7-4.956-1.718-7.891 0-2.953.582-5.584 1.745-7.892 1.163-2.327 2.818-4.143 4.966-5.45C98.716.654 101.24 0 104.12 0c2.183 0 4.16.376 5.932 1.127 1.772.752 3.248 1.826 4.429 3.222 1.199 1.378 2.023 3.015 2.47 4.912l-6.442 1.745c-.484-1.54-1.316-2.747-2.497-3.624-1.163-.877-2.487-1.315-3.973-1.315-2.434 0-4.268.84-5.503 2.523-1.217 1.682-1.834 3.92-1.852 6.71.018 2.846.653 5.101 1.906 6.765 1.253 1.647 3.069 2.47 5.449 2.47 1.682 0 3.025-.376 4.027-1.127 1.002-.77 1.762-1.924 2.281-3.463l6.604 1.476c-.895 2.953-2.461 5.226-4.698 6.818-2.237 1.575-4.975 2.363-8.214 2.363ZM125.786 17.1c.251 2.397 1.011 4.24 2.282 5.53 1.288 1.27 3.024 1.905 5.207 1.905 1.575 0 2.944-.349 4.107-1.047 1.164-.716 2.058-1.745 2.685-3.087l6.389 1.933a13.378 13.378 0 0 1-3.061 4.456 13.531 13.531 0 0 1-4.456 2.845 14.52 14.52 0 0 1-5.288.967c-2.899 0-5.467-.636-7.704-1.906s-3.982-3.043-5.234-5.315c-1.235-2.273-1.853-4.859-1.853-7.758 0-3.132.6-5.87 1.799-8.214 1.217-2.362 2.917-4.188 5.1-5.476C127.942.644 130.448 0 133.275 0c2.792 0 5.208.617 7.248 1.852s3.606 2.998 4.698 5.288c1.091 2.273 1.637 4.949 1.637 8.027 0 .608-.027 1.252-.08 1.932h-20.992Zm7.758-11.436c-4.295 0-6.827 2.183-7.597 6.55h14.281c-.286-2.255-.975-3.91-2.067-4.966-1.074-1.056-2.613-1.584-4.617-1.584ZM147.96.752l6.336.053 5.664 18.603L165.704.805h5.449l5.718 18.603L182.562.805h6.335l-8.858 28.991h-5.047l-6.577-19.944-6.55 19.944h-5.046L147.96.752ZM193.204.805h6.47v28.991h-6.47V.806ZM217.835 30.602c-3.579 0-6.488-.806-8.724-2.416-2.237-1.61-3.597-3.875-4.081-6.792l6.604-1.02c.322 1.45 1.065 2.586 2.228 3.41 1.181.805 2.657 1.207 4.429 1.207 1.539 0 2.738-.304 3.597-.912.859-.627 1.289-1.477 1.289-2.55 0-.698-.17-1.235-.51-1.611-.323-.376-.976-.743-1.96-1.1-.984-.377-2.622-.869-4.912-1.477-2.452-.644-4.394-1.333-5.825-2.067-1.414-.752-2.434-1.628-3.061-2.63-.626-1.02-.939-2.264-.939-3.732 0-1.79.465-3.355 1.396-4.698.948-1.342 2.281-2.38 3.999-3.113C213.101.367 215.106 0 217.378 0c2.237 0 4.233.349 5.986 1.047 1.754.698 3.168 1.7 4.242 3.006 1.091 1.289 1.754 2.792 1.986 4.51l-6.603 1.181c-.179-1.235-.752-2.21-1.718-2.926-.949-.716-2.21-1.118-3.785-1.208-1.521-.071-2.747.17-3.678.725-.93.537-1.396 1.289-1.396 2.255 0 .59.188 1.074.564 1.45.394.375 1.136.76 2.228 1.154 1.092.376 2.801.859 5.127 1.45 2.344.608 4.197 1.288 5.557 2.04 1.378.751 2.371 1.655 2.979 2.71.627 1.039.94 2.318.94 3.84 0 1.932-.483 3.605-1.45 5.019-.948 1.396-2.326 2.47-4.134 3.221-1.789.752-3.919 1.128-6.388 1.128ZM239.928 17.1c.25 2.397 1.011 4.24 2.281 5.53 1.289 1.27 3.025 1.905 5.208 1.905 1.575 0 2.944-.349 4.107-1.047 1.163-.716 2.058-1.745 2.685-3.087l6.388 1.933a13.36 13.36 0 0 1-3.06 4.456 13.542 13.542 0 0 1-4.456 2.845 14.52 14.52 0 0 1-5.288.967c-2.899 0-5.467-.636-7.704-1.906s-3.982-3.043-5.235-5.315c-1.234-2.273-1.852-4.859-1.852-7.758 0-3.132.6-5.87 1.799-8.214 1.217-2.362 2.917-4.188 5.1-5.476C242.084.644 244.59 0 247.417 0c2.792 0 5.208.617 7.248 1.852s3.606 2.998 4.698 5.288C260.454 9.413 261 12.09 261 15.167c0 .608-.027 1.252-.081 1.932h-20.991Zm7.758-11.436c-4.295 0-6.828 2.183-7.597 6.55h14.281c-.287-2.255-.976-3.91-2.067-4.966-1.074-1.056-2.613-1.584-4.617-1.584Z"
    fill="#000"
  />
</svg>