<svg width="375" height="504" viewBox="0 0 375 504" fill="none" xmlns="http://www.w3.org/2000/svg">
<g clip-path="url(#clip0_971_5437)">
<path fill-rule="evenodd" clip-rule="evenodd" d="M362.448 322.567C349.024 385.837 301.617 441.936 242.935 464.923C186.86 486.888 126.072 464.987 75.1859 435.091C32.261 409.873 18.9578 358.408 -9.43455 316.655C-51.9274 254.166 -150.853 209.396 -129.34 134.321C-108.188 60.5025 -2.52074 70.2038 68.0854 46.1233C125.529 26.532 185.148 -17.9184 238.31 8.93272C290.114 35.0979 284.36 111.076 306.268 166.425C327.398 219.81 374.625 265.176 362.448 322.567Z" fill="#FFF3F0"/>
<path opacity="0.32" fill-rule="evenodd" clip-rule="evenodd" d="M315.949 36.0613C401.019 92.6097 352.483 215.982 321.335 313.347C297.18 388.856 254.546 459.217 176.389 472.318C59.5305 491.906 -92.9518 500.766 -134.247 389.715C-174.816 280.613 -41.3006 205.1 50.2731 133.164C132.264 68.755 229.18 -21.6167 315.949 36.0613Z" fill="#C3CEEB"/>
<path d="M116.324 500.116C116.324 502.351 114.512 504.163 112.277 504.163C110.042 504.163 108.23 502.351 108.23 500.116C108.23 497.881 110.042 496.07 112.277 496.07C114.512 496.07 116.324 497.881 116.324 500.116Z" fill="#C3CEEB"/>
<circle cx="319.162" cy="67.1257" r="4.04664" fill="#EDC0B4"/>
<circle cx="321.185" cy="38.7993" r="6.06995" fill="#EEF3FF"/>
<circle cx="360.642" cy="65.1024" r="6.06995" fill="#C3CEEB"/>
<circle cx="283.249" cy="20.5897" r="12.1399" fill="#FBE84D"/>
</g>
<defs>
<clipPath id="clip0_971_5437">
<rect width="567" height="503.496" fill="white" transform="translate(-180)"/>
</clipPath>
</defs>
</svg>
