<svg width="348" height="144" viewBox="0 0 348 144" fill="none" xmlns="http://www.w3.org/2000/svg">
<path fill-rule="evenodd" clip-rule="evenodd" d="M274.997 78.8539C269.256 105.914 248.98 129.907 223.883 139.738C199.9 149.132 173.902 139.766 152.138 126.979C133.78 116.194 128.09 94.1826 115.947 76.3253C97.7734 49.5995 55.4639 30.452 64.6646 -1.65687C73.7113 -33.2283 118.904 -29.0792 149.102 -39.3781C173.67 -47.7571 199.168 -66.7681 221.905 -55.2841C244.061 -44.0936 241.6 -11.5985 250.97 12.0735C260.007 34.9057 280.205 54.3086 274.997 78.8539Z" fill="#FFF3F0"/>
<path opacity="0.32" fill-rule="evenodd" clip-rule="evenodd" d="M212.111 -99.5769C248.495 -75.3917 227.736 -22.6265 214.415 19.0155C204.084 51.3098 185.85 81.4022 152.423 87.0055C102.444 95.3833 37.2285 99.1725 19.5672 51.6772C2.21587 5.01548 59.3192 -27.2809 98.4843 -58.0472C133.551 -85.5941 175.001 -124.245 212.111 -99.5769Z" fill="#C3CEEB"/>
<circle cx="229.731" cy="59.5476" r="1.7307" fill="#B4DDCC"/>
<path d="M228 81.614C228 83.0478 226.837 84.2101 225.404 84.2101C223.97 84.2101 222.808 83.0478 222.808 81.614C222.808 80.1802 223.97 79.0179 225.404 79.0179C226.837 79.0179 228 80.1802 228 81.614Z" fill="#DFF5E5"/>
<path d="M241.845 85.2917C241.845 86.2476 241.07 87.0224 240.114 87.0224C239.159 87.0224 238.384 86.2476 238.384 85.2917C238.384 84.3359 239.159 83.561 240.114 83.561C241.07 83.561 241.845 84.3359 241.845 85.2917Z" fill="#C3CEEB"/>
<path d="M261.099 93.9452C261.099 94.901 260.324 95.6759 259.368 95.6759C258.413 95.6759 257.638 94.901 257.638 93.9452C257.638 92.9893 258.413 92.2145 259.368 92.2145C260.324 92.2145 261.099 92.9893 261.099 93.9452Z" fill="#FFEEFF"/>
<path d="M347.417 100.003C347.417 100.959 346.643 101.733 345.687 101.733C344.731 101.733 343.956 100.959 343.956 100.003C343.956 99.0468 344.731 98.272 345.687 98.272C346.643 98.272 347.417 99.0468 347.417 100.003Z" fill="#C3CEEB"/>
<path d="M285.112 86.5898C285.112 88.2625 283.756 89.6185 282.083 89.6185C280.411 89.6185 279.055 88.2625 279.055 86.5898C279.055 84.917 280.411 83.561 282.083 83.561C283.756 83.561 285.112 84.917 285.112 86.5898Z" fill="#EDC0B4"/>
<path d="M263.696 79.126C263.696 81.8143 261.517 83.9936 258.829 83.9936C256.14 83.9936 253.961 81.8143 253.961 79.126C253.961 76.4377 256.14 74.2584 258.829 74.2584C261.517 74.2584 263.696 76.4377 263.696 79.126Z" fill="#FFE700"/>
<circle cx="93.4866" cy="113.709" r="1.7307" fill="#EDC0B4"/>
<circle cx="94.3519" cy="101.594" r="2.59606" fill="#EEF3FF"/>
<circle cx="111.227" cy="112.844" r="2.59606" fill="#C3CEEB"/>
<circle cx="78.1267" cy="93.8059" r="5.19211" fill="#FBE84D"/>
</svg>
