<svg xmlns="http://www.w3.org/2000/svg" width="375" height="380" viewBox="0 0 375 380" fill="none">
    <path
      fill="#FFF3F0"
      fillRule="evenodd"
      d="M414.58 450.86c-13.353 62.936-60.51 118.738-118.881 141.603-55.779 21.849-116.245.064-166.862-29.674-42.697-25.085-55.93-76.278-84.172-117.81C2.397 382.821-96.005 338.288-74.607 263.61c21.04-73.428 126.149-63.778 196.381-87.731 57.14-19.487 116.444-63.703 169.324-36.994 51.53 26.027 45.807 101.603 67.598 156.659 21.019 53.103 67.996 98.229 55.884 155.316Z"
      clipRule="evenodd"
    />
    <path
      fill="#C3CEEB"
      fillRule="evenodd"
      d="M268.324 35.87c84.619 56.25 36.34 178.97 5.357 275.82-24.028 75.109-66.436 145.097-144.18 158.129-116.24 19.485-267.915 28.298-308.991-82.166-40.355-108.524 92.454-183.638 183.543-255.194C85.61 68.391 182.014-21.502 268.324 35.871Z"
      clipRule="evenodd"
      opacity="0.32"
    />
    <circle cx="286.044" cy="173.381" r="4.025" fill="#B4DDCC" />
    <path fill="#DFF5E5" d="M282.018 224.702a6.038 6.038 0 1 1-12.075 0 6.038 6.038 0 0 1 12.075 0Z" />
    <path fill="#C3CEEB" d="M314.219 233.256a4.025 4.025 0 1 1-8.05 0 4.025 4.025 0 0 1 8.05 0Z" />
    <path fill="#FEF" d="M359.001 253.382a4.026 4.026 0 1 1-8.052-.002 4.026 4.026 0 0 1 8.052.002Z" />
    <path fill="#E6F6FD" d="M317.239 7.34a7.044 7.044 0 1 1-14.089 0 7.044 7.044 0 0 1 14.089 0Z" />
    <path
      fill="#FFE700"
      d="M365.039 218.916c0 6.252-5.068 11.321-11.321 11.321-6.252 0-11.321-5.069-11.321-11.321s5.069-11.321 11.321-11.321c6.253 0 11.321 5.069 11.321 11.321Z"
    />
    <circle cx="271.522" cy="66.771" r="4.025" fill="#EDC0B4" />
    <circle cx="273.535" cy="38.594" r="6.038" fill="#EEF3FF" />
    <circle cx="312.783" cy="64.758" r="6.038" fill="#C3CEEB" />
    <circle cx="235.799" cy="20.481" r="12.076" fill="#FBE84D" />
  </svg>